<?xml version="1.0" ?><svg data-name="Filled Outline" id="Filled_Outline" viewBox="0 0 128 128" xmlns="http://www.w3.org/2000/svg"><title/><path d="M40.3,106.594c3.467,7.067,12.77,12.13,23.7,12.13s20.237-5.063,23.7-12.13Z" style="fill:#2ea395"/><path d="M11.647,59.319s.829,51.95,52.353,51.95,52.353-51.95,52.353-51.95Z" style="fill:#3abaae"/><path d="M3.008,13.393a2.71,2.71,0,0,0,2.681,2.349,2.679,2.679,0,0,0,1.913-.8l.219-.222,3.014,2.958a3.185,3.185,0,0,0,4.491-.027L17.665,15.3a3.187,3.187,0,0,0-.015-4.507L14.67,7.834l.213-.213a2.7,2.7,0,0,0-1.575-4.586L5.534,2.061A3.175,3.175,0,0,0,1.991,5.624Z" style="fill:#ff5581"/><path d="M124.994,13.393a2.709,2.709,0,0,1-2.68,2.349,2.681,2.681,0,0,1-1.914-.8l-.219-.222-3.013,2.958a3.186,3.186,0,0,1-4.492-.027L110.338,15.3a3.186,3.186,0,0,1,.014-4.507l2.981-2.959-.214-.213A2.7,2.7,0,0,1,114.7,3.035l7.774-.974a3.175,3.175,0,0,1,3.543,3.563Z" style="fill:#ff5581"/><path d="M3.008,114.631a2.71,2.71,0,0,1,2.681-2.35,2.675,2.675,0,0,1,1.913.8l.219.221,3.014-2.958a3.186,3.186,0,0,1,4.491.028l2.339,2.351a3.188,3.188,0,0,1-.015,4.508l-2.98,2.958.213.214a2.7,2.7,0,0,1-1.575,4.585l-7.774.974A3.175,3.175,0,0,1,1.991,122.4Z" style="fill:#ff5581"/><path d="M124.994,114.631a2.709,2.709,0,0,0-2.68-2.35,2.678,2.678,0,0,0-1.914.8l-.219.221-3.013-2.958a3.187,3.187,0,0,0-4.492.028l-2.338,2.351a3.187,3.187,0,0,0,.014,4.508l2.981,2.958-.214.214a2.7,2.7,0,0,0,1.576,4.585l7.774.974a3.175,3.175,0,0,0,3.543-3.563Z" style="fill:#ff5581"/><path d="M63.762,34.995a1.5,1.5,0,0,1-1.128-2.487c.2-.234,4.95-5.82.712-9.835-2.331-2.208-4.449-6.075-3.924-9.739.27-1.892,1.372-4.546,5.079-6.449a1.5,1.5,0,0,1,1.369,2.67c-2.06,1.057-3.23,2.471-3.478,4.2-.371,2.589,1.3,5.515,3.016,7.137,5.069,4.8,1.879,11.248-.516,13.987A1.5,1.5,0,0,1,63.762,34.995Z" style="fill:#332c44"/><path d="M85.128,38.064A1.5,1.5,0,0,1,84,35.576c.145-.168,3.592-4.234.571-7.095-1.859-1.761-3.547-4.855-3.126-7.8a6.928,6.928,0,0,1,4.1-5.224,1.5,1.5,0,1,1,1.369,2.67,4.047,4.047,0,0,0-2.5,2.978c-.256,1.79.923,3.968,2.219,5.2,4.093,3.876,1.545,9.053-.374,11.248A1.5,1.5,0,0,1,85.128,38.064Z" style="fill:#332c44"/><path d="M44.492,38.064a1.5,1.5,0,0,1-1.128-2.488c.145-.168,3.592-4.234.572-7.095-1.86-1.761-3.548-4.856-3.126-7.8A6.922,6.922,0,0,1,44.9,15.459a1.5,1.5,0,1,1,1.369,2.67,4.042,4.042,0,0,0-2.494,2.978C43.523,22.9,44.7,25.074,46,26.3c4.093,3.876,1.544,9.053-.376,11.248A1.5,1.5,0,0,1,44.492,38.064Z" style="fill:#332c44"/><ellipse cx="64" cy="59.319" rx="52.353" ry="14.65" style="fill:#ffd0ca"/><path d="M108.838,66.892c-9.16,4.24-25.81,7.08-44.84,7.08s-35.68-2.84-44.84-7.08c4.44-5.45,22.83-9.54,44.84-9.54S104.408,61.442,108.838,66.892Z" style="fill:#ffa85a"/><path d="M78.3,60.673c0,1.71-1.386,2.354-3.1,2.354s-3.1-.644-3.1-2.354a3.1,3.1,0,1,1,6.2,0Z" style="fill:#332c44"/><path d="M58.629,65.468c0,2.045-1.657,2.814-3.7,2.814s-3.7-.769-3.7-2.814a3.7,3.7,0,0,1,7.4,0Z" style="fill:#332c44"/><path d="M38.279,64.831c0,1.554-1.26,2.139-2.815,2.139s-2.814-.585-2.814-2.139a2.815,2.815,0,1,1,5.629,0Z" style="fill:#332c44"/><path d="M72.24,71.1c0,1.555-1.261,2.14-2.815,2.14s-2.815-.585-2.815-2.14a2.815,2.815,0,0,1,5.63,0Z" style="fill:#332c44"/><path d="M93.906,64.765c0,1.254-1.016,1.725-2.27,1.725s-2.269-.471-2.269-1.725a2.27,2.27,0,0,1,4.539,0Z" style="fill:#332c44"/><path d="M64,43.169c-26.106,0-53.854,5.66-53.854,16.149a68.6,68.6,0,0,0,7.02,26.66,47.271,47.271,0,0,0,22.025,21.715C43.159,115.2,53.037,120.224,64,120.224s20.841-5.02,24.809-12.531a47.271,47.271,0,0,0,22.025-21.715,68.608,68.608,0,0,0,7.019-26.66C117.853,48.829,90.106,43.169,64,43.169Zm0,74.055c-8,0-15.312-2.878-19.638-7.453a61.034,61.034,0,0,0,19.638,3,61.056,61.056,0,0,0,19.62-2.993C79.294,114.347,72,117.224,64,117.224ZM108.116,84.7C99.562,101.336,84.72,109.77,64,109.77S28.437,101.336,19.884,84.7a64.262,64.262,0,0,1-6.1-19.233c8.356,6.534,29.788,10,50.217,10s41.863-3.467,50.218-10A64.322,64.322,0,0,1,108.116,84.7ZM21.909,66.434c5.586-3.889,21-7.578,42.091-7.578s36.5,3.689,42.091,7.578C97.259,69.873,82.336,72.469,64,72.469S30.742,69.873,21.909,66.434ZM109.18,65.08c-5.894-5.474-24.027-9.224-45.18-9.224s-39.287,3.75-45.18,9.224c-3.663-1.837-5.674-3.833-5.674-5.762C13.146,53.1,34.031,46.169,64,46.169s50.853,6.93,50.853,13.149C114.853,61.247,112.843,63.243,109.18,65.08Z" style="fill:#332c44"/><path d="M16.052,7.823a3.7,3.7,0,0,0-2.566-5.77L5.718,1.036A4.157,4.157,0,0,0,5.173,1h0A4.175,4.175,0,0,0,1.033,5.7l.974,7.774a3.708,3.708,0,0,0,3.675,3.24,3.66,3.66,0,0,0,2.066-.633l2.3,2.315a4.186,4.186,0,0,0,5.923.019l2.352-2.338a4.2,4.2,0,0,0,.035-5.9Zm.153,6.121-2.351,2.339a1.188,1.188,0,0,1-1.679-.005L8.3,12.372a.7.7,0,0,0-.99,0L6.172,13.5a.69.69,0,0,1-.49.205.7.7,0,0,1-.7-.613L4.009,5.322A1.176,1.176,0,0,1,5.173,4a1.163,1.163,0,0,1,.155.01L13.1,5.028a.7.7,0,0,1,.4,1.19l-1.14,1.131a.7.7,0,0,0,0,.991l3.861,3.932A1.186,1.186,0,0,1,16.2,13.944Z" style="fill:#332c44"/><path d="M112.031,18.41a4.186,4.186,0,0,0,5.923-.019l2.3-2.315a3.66,3.66,0,0,0,2.066.633,3.708,3.708,0,0,0,3.675-3.241l.974-7.773a4.171,4.171,0,0,0-4.685-4.659l-7.768,1.017a3.7,3.7,0,0,0-2.566,5.77l-2.3,2.348a4.2,4.2,0,0,0,.035,5.9Zm-.247-6.138,3.861-3.932a.7.7,0,0,0,0-.991L114.5,6.218a.7.7,0,0,1,.4-1.19l7.768-1.018a1.163,1.163,0,0,1,.155-.01,1.176,1.176,0,0,1,1.164,1.322l-.975,7.774a.7.7,0,0,1-.7.613.69.69,0,0,1-.49-.205l-1.137-1.134a.7.7,0,0,0-.99,0l-3.877,3.906a1.187,1.187,0,0,1-1.678.005L111.8,13.944A1.186,1.186,0,0,1,111.784,12.272Z" style="fill:#332c44"/><path d="M15.969,109.59a4.185,4.185,0,0,0-5.922.019l-2.3,2.315a3.66,3.66,0,0,0-2.066-.633,3.708,3.708,0,0,0-3.675,3.24l-.974,7.774a4.171,4.171,0,0,0,4.685,4.659l7.768-1.017a3.7,3.7,0,0,0,2.566-5.77l2.3-2.348a4.2,4.2,0,0,0-.036-5.9Zm.247,6.138-3.861,3.932a.7.7,0,0,0,0,.991l1.14,1.131a.7.7,0,0,1-.4,1.19L5.328,123.99a1.163,1.163,0,0,1-.155.01,1.176,1.176,0,0,1-1.164-1.322l.974-7.774a.7.7,0,0,1,.7-.613.69.69,0,0,1,.49.2l1.137,1.134a.7.7,0,0,0,.99,0l3.876-3.906a1.188,1.188,0,0,1,1.679,0l2.351,2.339A1.186,1.186,0,0,1,16.216,115.728Z" style="fill:#332c44"/><path d="M126.967,122.306l-.974-7.775a3.708,3.708,0,0,0-3.675-3.24,3.66,3.66,0,0,0-2.066.633l-2.3-2.315a4.156,4.156,0,0,0-2.971-1.237h0a4.157,4.157,0,0,0-2.951,1.218l-2.352,2.338a4.2,4.2,0,0,0-.035,5.9l2.3,2.348a3.7,3.7,0,0,0,2.566,5.77l7.768,1.017a4.174,4.174,0,0,0,4.685-4.658ZM122.827,124a1.163,1.163,0,0,1-.155-.01l-7.768-1.018a.7.7,0,0,1-.4-1.19l1.14-1.131a.7.7,0,0,0,0-.991l-3.861-3.932a1.186,1.186,0,0,1,.011-1.672l2.351-2.339a1.187,1.187,0,0,1,1.678,0l3.877,3.906a.7.7,0,0,0,.99,0l1.137-1.134a.69.69,0,0,1,.49-.2.7.7,0,0,1,.7.613l.975,7.774A1.176,1.176,0,0,1,122.827,124Z" style="fill:#332c44"/></svg>